<svg width="28" height="22" viewBox="0 0 28 22" fill="none" xmlns="http://www.w3.org/2000/svg">
<path fill-rule="evenodd" clip-rule="evenodd" d="M8.88324 0.0763612C8.72485 0.116829 8.45756 0.218 8.28432 0.303995C8.11602 0.38999 7.88338 0.531628 7.76459 0.622681C7.64579 0.708676 6.0569 2.54492 4.23042 4.69985C3.0711 6.06396 2.01293 7.31253 1.36478 8.0773L1.36389 8.07835C0.98865 8.52111 0.751043 8.80146 0.711112 8.84784C0.607166 8.9743 0.433925 9.25758 0.325029 9.48015C0.196334 9.7432 0.102287 10.0366 0.0527894 10.3148C0.00329144 10.588 -0.011558 10.8662 0.00824125 11.0736C0.0230907 11.2557 0.062689 11.5036 0.0923879 11.63C0.117137 11.7565 0.226033 12.0398 0.329979 12.2623C0.50322 12.6266 0.859606 13.0666 3.96808 16.7391C5.86881 18.9801 7.53195 20.9074 7.67549 21.0237C7.81408 21.1451 8.05168 21.307 8.20017 21.393C8.34866 21.4739 8.6506 21.5852 8.86839 21.6459C9.09113 21.7015 9.41782 21.7471 9.61086 21.7471C9.79896 21.7471 10.1108 21.7117 10.3038 21.6712C10.4969 21.6257 10.8038 21.5144 10.9968 21.4183C11.1899 21.3222 11.4621 21.135 11.6106 21.0035C11.7591 20.8669 12.3036 20.2599 12.8183 19.6478C13.0091 19.4231 13.1926 19.2059 13.3513 19.0179L13.3514 19.0179L13.3514 19.0179L13.3517 19.0176L13.3519 19.0173C13.6252 18.6937 13.8252 18.457 13.8627 18.4186L13.9667 18.2972C15.6744 20.3054 16.2882 20.9731 16.4268 21.0844C16.5703 21.1906 16.7881 21.3323 16.9118 21.393C17.0356 21.4587 17.2583 21.5548 17.4068 21.6054C17.5553 21.6611 17.877 21.7167 18.1245 21.7319C18.4463 21.7521 18.674 21.737 18.9413 21.6763C19.1442 21.6307 19.456 21.5245 19.6342 21.4385C19.8124 21.3525 20.0649 21.2008 20.1985 21.0996C20.3272 20.9984 21.9755 19.0964 23.8614 16.8757C25.7423 14.655 27.3658 12.7075 27.4648 12.5507C27.5688 12.3939 27.7123 12.0701 27.7866 11.8324C27.9054 11.4682 27.9251 11.3164 27.9251 10.846C27.9251 10.3907 27.9004 10.2187 27.8014 9.91013C27.7321 9.70273 27.5985 9.39922 27.5044 9.2424C27.4104 9.08559 25.8611 7.21899 24.0643 5.09442C22.2675 2.96984 20.6885 1.11336 20.5499 0.966661C20.4163 0.819963 20.1688 0.607506 20.0055 0.496219C19.8421 0.38999 19.5402 0.238234 19.3372 0.167415C19.0551 0.0611857 18.8423 0.0257759 18.4463 0.00554178C18.0651 -0.00963377 17.8424 0.00554177 17.6048 0.0662442C17.4266 0.111771 17.1296 0.223058 16.9366 0.31917C16.7188 0.430458 16.4614 0.617623 16.2337 0.840198C16.0357 1.02736 14.3874 2.93443 12.5758 5.07924C10.7642 7.22405 9.21488 9.09065 9.13568 9.22723C9.05649 9.36887 8.94264 9.61168 8.87829 9.77355L8.7694 10.0669C3.41866 10.0619 1.86442 10.0467 1.86442 10.0265C1.86442 10.0012 3.39391 8.17505 5.26493 5.96448C8.44766 2.206 8.6902 1.9379 8.96244 1.7912C9.21488 1.65968 9.31388 1.63944 9.63066 1.63944C9.93755 1.63944 10.0563 1.66474 10.2791 1.77602C10.5068 1.88731 10.6751 2.04918 11.3185 2.8029C11.9323 3.51616 12.0957 3.68309 12.1452 3.62744L12.1931 3.57088C12.2806 3.46786 12.4692 3.24578 12.6698 3.00525L13.1401 2.44881C12.1452 1.27017 11.7393 0.835139 11.6007 0.713734C11.4571 0.597388 11.1899 0.420341 10.9968 0.324229C10.8038 0.228117 10.5167 0.111771 10.3533 0.0713027C10.185 0.0308344 9.8633 -0.00457525 9.61086 0.000483253C9.36337 0.000483253 9.03669 0.0358929 8.87829 0.0763612H8.88324ZM17.5559 1.89848C17.6499 1.84284 17.8083 1.76696 17.9023 1.73155C17.9964 1.69614 18.2092 1.67085 18.3726 1.68096C18.5706 1.68602 18.7636 1.73661 18.9418 1.82766C19.1942 1.94906 19.4665 2.25763 22.5304 5.86941C24.3569 8.01929 25.8864 9.83024 26.02 10.0123L19.214 10.0174L19.1051 9.72401C19.0458 9.56214 18.9072 9.29403 18.8032 9.1271C18.6943 8.96017 17.8281 7.90294 16.8678 6.77489C15.9125 5.64684 15.1305 4.71102 15.1305 4.69078C15.1305 4.66549 15.6353 4.05341 16.2541 3.32498C16.8777 2.59656 17.4618 1.95412 17.5559 1.89848ZM12.2845 8.01449C11.3589 9.10714 10.5471 10.1138 10.4778 10.2453C10.3788 10.4426 10.3541 10.564 10.3541 10.8726C10.3541 11.166 10.3788 11.3025 10.4679 11.4796C10.5273 11.606 11.0817 12.2991 11.6955 13.0224C12.3092 13.7458 12.8983 14.4439 13.0072 14.5805L13.2002 14.8182C12.3835 15.7793 12.1212 16.0626 12.0915 16.0727C12.0618 16.0778 11.4381 15.3746 10.7006 14.5096C9.96304 13.6446 9.29977 12.8403 9.21562 12.724C9.13147 12.6076 9.00773 12.3749 8.93843 12.2131C8.88716 12.0978 8.83825 11.9777 8.80637 11.8994C8.79208 11.8643 8.78121 11.8377 8.77509 11.8236C8.74539 11.7376 8.5375 11.7325 5.35477 11.7325C3.48869 11.7325 1.96415 11.7426 1.96415 11.7578C1.96415 11.773 3.39465 13.4726 5.13698 15.5416C6.88426 17.6055 8.4187 19.4063 8.54245 19.5378C8.66619 19.6744 8.87903 19.8413 9.01763 19.9172C9.21067 20.0184 9.33936 20.0487 9.6116 20.0487C9.90364 20.0538 10.0076 20.0285 10.2551 19.902C10.5026 19.7756 10.6511 19.6339 11.1955 18.9915C11.5519 18.5767 12.2795 17.7167 12.8092 17.0895C13.0968 16.7457 13.6015 16.1495 14.1611 15.4886C14.6225 14.9437 15.1211 14.3547 15.5662 13.8267C16.5562 12.6633 17.4125 11.6162 17.4719 11.5049C17.5313 11.3835 17.5808 11.166 17.5956 10.9484C17.6154 10.6449 17.6006 10.5539 17.4966 10.3161C17.4075 10.1138 16.9324 9.51182 15.7543 8.11566L15.713 8.0669C14.8349 7.03071 14.0905 6.15225 14.0466 6.10743C13.9724 6.02649 13.8536 6.15296 12.2845 8.01449ZM18.7984 12.617C18.9073 12.4501 19.0409 12.182 19.1003 12.0252L19.1993 11.7318L26.0449 11.7267L25.7677 12.0454C25.668 12.1642 24.9595 13.001 23.9954 14.1396L22.4365 15.9809C20.4367 18.3534 19.2933 19.6635 19.125 19.79C18.9617 19.9114 18.7687 19.9974 18.5954 20.0328C18.4469 20.0632 18.2341 20.0733 18.1252 20.0581C18.0163 20.0379 17.8183 19.9721 17.6797 19.9063C17.4718 19.8052 17.259 19.5775 16.2789 18.4242C15.6453 17.6806 15.1256 17.0584 15.1256 17.0432C15.1256 17.028 15.9126 16.0973 16.8679 14.9692C17.8232 13.8412 18.6944 12.7839 18.7984 12.617ZM20.9212 10.0472C21.8864 10.0573 23.4456 10.0573 24.3861 10.0472C25.3265 10.0421 24.5346 10.0371 22.6289 10.0371C20.7232 10.0371 19.956 10.0421 20.9212 10.0472ZM7.06218 11.7168C6.12171 11.7269 4.57739 11.7269 3.62208 11.7168C2.66676 11.7117 3.43893 11.7067 5.32974 11.7067C7.22057 11.7067 8.00264 11.7117 7.06218 11.7168ZM20.8969 11.7169C21.8523 11.7271 23.3966 11.7271 24.3371 11.7169C25.2775 11.7119 24.4954 11.7068 22.6046 11.7068C20.7138 11.7068 19.9416 11.7119 20.8969 11.7169Z" fill="#181818"/>
</svg>
